<mxfile host="app.diagrams.net" modified="2022-01-28T08:05:17.103Z" agent="5.0 (Macintosh; Intel Mac OS X 10_15_0) AppleWebKit/537.36 (KHTML, like Gecko) Chrome/97.0.4692.99 Safari/537.36" etag="yIcMXnF_fX8CgGxZ-dxZ" version="16.4.7" type="github">
  <diagram id="prtHgNgQTEPvFCAcTncT" name="Page-1">
    <mxGraphModel dx="786" dy="491" grid="1" gridSize="10" guides="1" tooltips="1" connect="1" arrows="1" fold="1" page="1" pageScale="1" pageWidth="827" pageHeight="1169" math="0" shadow="0">
      <root>
        <mxCell id="0" />
        <mxCell id="1" parent="0" />
        <mxCell id="W3Ta2PXYDv4i-qcJKnqc-1" value="Pool" style="swimlane;childLayout=stackLayout;resizeParent=1;resizeParentMax=0;startSize=20;" vertex="1" parent="1">
          <mxGeometry x="220" y="80" width="360" height="480" as="geometry" />
        </mxCell>
        <mxCell id="W3Ta2PXYDv4i-qcJKnqc-2" value="Lane 1" style="swimlane;startSize=20;" vertex="1" parent="W3Ta2PXYDv4i-qcJKnqc-1">
          <mxGeometry y="20" width="120" height="460" as="geometry" />
        </mxCell>
        <mxCell id="W3Ta2PXYDv4i-qcJKnqc-3" value="Lane 2" style="swimlane;startSize=20;" vertex="1" parent="W3Ta2PXYDv4i-qcJKnqc-1">
          <mxGeometry x="120" y="20" width="120" height="460" as="geometry" />
        </mxCell>
        <mxCell id="W3Ta2PXYDv4i-qcJKnqc-4" value="Lane 3" style="swimlane;startSize=20;" vertex="1" parent="W3Ta2PXYDv4i-qcJKnqc-1">
          <mxGeometry x="240" y="20" width="120" height="460" as="geometry" />
        </mxCell>
        <mxCell id="W3Ta2PXYDv4i-qcJKnqc-5" value="Pool" style="swimlane;childLayout=stackLayout;resizeParent=1;resizeParentMax=0;startSize=20;" vertex="1" parent="1">
          <mxGeometry x="220" y="80" width="360" height="480" as="geometry" />
        </mxCell>
        <mxCell id="W3Ta2PXYDv4i-qcJKnqc-6" value="Lane 1" style="swimlane;startSize=20;" vertex="1" parent="W3Ta2PXYDv4i-qcJKnqc-5">
          <mxGeometry y="20" width="120" height="460" as="geometry" />
        </mxCell>
        <mxCell id="W3Ta2PXYDv4i-qcJKnqc-7" value="Lane 2" style="swimlane;startSize=20;" vertex="1" parent="W3Ta2PXYDv4i-qcJKnqc-5">
          <mxGeometry x="120" y="20" width="120" height="460" as="geometry" />
        </mxCell>
        <mxCell id="W3Ta2PXYDv4i-qcJKnqc-8" value="Lane 3" style="swimlane;startSize=20;" vertex="1" parent="W3Ta2PXYDv4i-qcJKnqc-5">
          <mxGeometry x="240" y="20" width="120" height="460" as="geometry" />
        </mxCell>
        <mxCell id="W3Ta2PXYDv4i-qcJKnqc-9" value="净菜流程" style="swimlane;childLayout=stackLayout;resizeParent=1;resizeParentMax=0;startSize=20;" vertex="1" parent="1">
          <mxGeometry x="220" y="80" width="360" height="480" as="geometry" />
        </mxCell>
        <mxCell id="W3Ta2PXYDv4i-qcJKnqc-10" value="团餐客户" style="swimlane;startSize=20;" vertex="1" parent="W3Ta2PXYDv4i-qcJKnqc-9">
          <mxGeometry y="20" width="120" height="460" as="geometry" />
        </mxCell>
        <mxCell id="W3Ta2PXYDv4i-qcJKnqc-11" value="销售部" style="swimlane;startSize=20;" vertex="1" parent="W3Ta2PXYDv4i-qcJKnqc-9">
          <mxGeometry x="120" y="20" width="120" height="460" as="geometry" />
        </mxCell>
        <mxCell id="W3Ta2PXYDv4i-qcJKnqc-12" value="采购部" style="swimlane;startSize=20;" vertex="1" parent="W3Ta2PXYDv4i-qcJKnqc-9">
          <mxGeometry x="240" y="20" width="120" height="460" as="geometry">
            <mxRectangle x="240" y="20" width="30" height="460" as="alternateBounds" />
          </mxGeometry>
        </mxCell>
      </root>
    </mxGraphModel>
  </diagram>
</mxfile>
